<?xml version="1.0" standalone="no"?>
<!DOCTYPE svg PUBLIC "-//W3C//DTD SVG 20010904//EN"
 "http://www.w3.org/TR/2001/REC-SVG-20010904/DTD/svg10.dtd">
<svg version="1.0" xmlns="http://www.w3.org/2000/svg"
 width="1280.000000pt" height="490.000000pt" viewBox="0 0 1280.000000 490.000000"
 preserveAspectRatio="xMidYMid meet">

<g transform="translate(0.000000,490.000000) scale(0.100000,-0.100000)"
fill="#000000" stroke="none">
<path d="M5000 4741 c-250 -47 -452 -245 -500 -489 -18 -92 -8 -240 23 -324
50 -137 124 -247 360 -533 141 -171 216 -255 226 -255 10 0 283 322 386 455
162 208 222 338 232 500 16 286 -152 528 -437 627 -62 22 -220 32 -290 19z
m237 -105 c91 -24 164 -68 239 -141 75 -75 113 -140 139 -241 71 -272 -106
-559 -386 -628 -124 -31 -230 -18 -355 44 -133 65 -241 200 -273 340 -28 121
-5 276 56 383 63 107 195 209 313 241 70 19 200 20 267 2z"/>
<path d="M4958 4564 c-186 -63 -307 -232 -308 -430 0 -134 43 -238 136 -330
248 -244 664 -136 765 198 56 184 -21 399 -181 506 -126 85 -269 104 -412 56z
m198 -80 c24 -14 44 -29 44 -33 0 -4 -24 -19 -52 -34 -29 -14 -93 -49 -141
-77 l-89 -50 -50 26 c-27 14 -48 27 -46 29 5 5 283 165 286 165 2 0 23 -12 48
-26z m182 -104 c28 -17 52 -33 52 -35 0 -3 -63 -36 -140 -75 l-140 -70 -56 28
-55 28 123 68 c68 37 127 72 133 77 14 14 26 11 83 -21z m-458 -234 c0 -91 1
-93 30 -114 16 -12 32 -22 35 -22 3 0 5 41 5 90 0 55 4 90 10 90 6 0 33 -11
60 -25 l50 -25 0 -186 0 -185 -42 25 c-24 13 -90 51 -148 84 l-105 59 -3 159
c-1 87 0 164 2 171 4 9 17 7 56 -9 l50 -21 0 -91z m560 -38 l0 -173 -53 -27
c-28 -16 -94 -53 -144 -83 -51 -30 -95 -55 -98 -55 -3 0 -5 82 -5 183 l0 184
143 71 c78 39 145 71 150 71 4 1 7 -77 7 -171z"/>
<path d="M1205 3949 c-288 -34 -550 -183 -689 -393 -99 -149 -136 -274 -136
-466 0 -230 55 -381 193 -526 90 -95 198 -169 337 -230 92 -40 147 -59 520
-179 209 -67 300 -109 367 -170 68 -60 93 -116 93 -204 0 -81 -17 -126 -67
-182 -71 -79 -177 -116 -353 -125 -325 -17 -555 105 -685 366 -26 50 -41 70
-51 66 -51 -20 -473 -274 -474 -285 0 -29 93 -200 154 -281 168 -223 426 -367
751 -416 144 -23 435 -15 567 15 365 82 622 300 709 603 27 94 37 288 19 396
-23 145 -93 288 -189 383 -132 132 -299 216 -691 347 -406 136 -475 168 -557
254 -128 134 -74 351 109 433 56 26 77 29 190 33 117 4 135 2 212 -22 145 -45
247 -131 334 -283 32 -56 37 -61 56 -51 12 6 57 32 101 58 44 25 142 82 218
125 76 43 139 81 141 84 5 8 -83 158 -129 218 -123 162 -303 297 -483 363
-165 60 -398 89 -567 69z"/>
<path d="M2620 2430 l0 -1470 268 2 267 3 5 640 c6 690 5 678 61 791 88 177
318 261 545 198 114 -32 206 -123 246 -242 22 -66 23 -74 26 -730 l3 -662 267
2 267 3 3 605 c4 818 -6 935 -98 1126 -74 154 -187 268 -335 339 -132 63 -213
80 -375 79 -232 -2 -400 -64 -536 -200 l-74 -74 -2 527 -3 528 -267 3 -268 2
0 -1470z"/>
<path d="M6730 3109 c-173 -23 -341 -104 -461 -221 l-69 -67 0 119 0 120 -270
0 -270 0 0 -1465 0 -1465 270 0 270 0 0 537 0 537 58 -58 c115 -116 279 -201
438 -226 338 -54 664 54 893 295 167 177 260 371 301 628 15 88 9 310 -10 397
-77 358 -277 629 -575 776 -169 84 -383 118 -575 93z m199 -524 c308 -73 487
-383 416 -718 -67 -318 -369 -503 -704 -432 -266 56 -441 285 -441 576 0 114
13 175 61 278 67 144 200 253 359 295 73 19 229 19 309 1z"/>
<path d="M4832 2013 l3 -1048 268 -3 267 -2 0 1050 0 1050 -270 0 -270 0 2
-1047z"/>
</g>
</svg>
