<svg width="27" height="27" viewBox="0 0 27 27" fill="none" xmlns="http://www.w3.org/2000/svg">
<path d="M22.2333 23.1667L23.1667 22.2333L20.6667 19.7333V16H19.3333V20.2667L22.2333 23.1667ZM20 26.6667C18.1556 26.6667 16.5833 26.0167 15.2833 24.7167C13.9833 23.4167 13.3333 21.8444 13.3333 20C13.3333 18.1556 13.9833 16.5833 15.2833 15.2833C16.5833 13.9833 18.1556 13.3333 20 13.3333C21.8444 13.3333 23.4167 13.9833 24.7167 15.2833C26.0167 16.5833 26.6667 18.1556 26.6667 20C26.6667 21.8444 26.0167 23.4167 24.7167 24.7167C23.4167 26.0167 21.8444 26.6667 20 26.6667ZM5.33333 8H18.6667V5.33333H5.33333V8ZM11.5667 24H2.66667C1.93333 24 1.30556 23.7389 0.783333 23.2167C0.261111 22.6944 0 22.0667 0 21.3333V2.66667C0 1.93333 0.261111 1.30556 0.783333 0.783333C1.30556 0.261111 1.93333 0 2.66667 0H21.3333C22.0667 0 22.6944 0.261111 23.2167 0.783333C23.7389 1.30556 24 1.93333 24 2.66667V11.6C23.3556 11.2889 22.7056 11.0556 22.05 10.9C21.3944 10.7444 20.7111 10.6667 20 10.6667C19.7556 10.6667 19.5278 10.6722 19.3167 10.6833C19.1056 10.6944 18.8889 10.7222 18.6667 10.7667V10.6667H5.33333V13.3333H13.5C13.1 13.7111 12.7389 14.1222 12.4167 14.5667C12.0944 15.0111 11.8111 15.4889 11.5667 16H5.33333V18.6667H10.7667C10.7222 18.8889 10.6944 19.1056 10.6833 19.3167C10.6722 19.5278 10.6667 19.7556 10.6667 20C10.6667 20.7333 10.7333 21.4167 10.8667 22.05C11 22.6833 11.2333 23.3333 11.5667 24Z" fill="#BD96F7"/>
</svg>
