<svg width="32" height="40" viewBox="0 0 32 40" fill="none" xmlns="http://www.w3.org/2000/svg">
<path d="M1.09817e-06 15.702C0.588076 6.19114 7.72428 -1.00035 17.9066 0.114008C25.2608 0.917381 31.1218 6.46325 31.9345 14.3998C32.3508 18.4361 30.7319 21.9541 28.525 25.2259C25.1089 30.2859 20.8073 34.6655 16.9485 39.3821C16.3274 40.1466 15.6996 40.2373 15.0785 39.4534C10.4334 33.5253 4.74425 28.3746 1.48671 21.4423C0.561647 19.4921 0.389849 17.3801 1.09817e-06 15.702ZM16.0234 28.3098C23.3578 28.3293 29.4236 22.5955 29.4699 15.5984C29.5161 8.3745 23.6155 2.45286 16.2679 2.3492C9.11187 2.24554 2.92716 8.07647 2.89413 14.944C2.86109 22.5242 8.5238 28.2904 16.0234 28.3098Z" fill="#0CBB7D"/>
<path d="M27.8574 15.4756C27.831 21.8378 22.4458 27.0467 16.0364 26.9107C9.50811 26.7746 4.37401 21.5981 4.44008 15.2164C4.50616 8.80887 9.75259 3.76835 16.3007 3.83961C22.8356 3.91088 27.8838 8.99027 27.8574 15.4756ZM17.0672 24.1831C24.7584 20.8465 24.7716 20.8271 24.6329 13.2404C24.6329 13.1691 24.6263 13.1043 24.6329 13.0331C24.732 11.9835 24.58 11.4393 23.3114 12.1195C21.6066 13.0331 19.8226 13.8299 18.0451 14.6074C17.2985 14.9313 17.0342 15.3784 17.0474 16.1753C17.0936 18.7668 17.0672 21.3519 17.0672 24.1831ZM15.2369 24.3969C15.2369 21.8442 15.2369 19.6609 15.2369 17.484C15.2369 14.7499 15.0783 14.5621 12.0719 13.9984C12.0719 15.4173 12.0719 16.8037 12.0719 18.2161C10.1358 17.7367 10.1821 16.3696 10.3473 15.0674C10.605 13.059 9.80545 11.977 7.59851 11.8021C7.59851 14.277 7.62494 16.7389 7.5853 19.1944C7.57208 19.9265 7.87603 20.3088 8.49054 20.6392C10.6182 21.7924 12.7194 22.9975 15.2369 24.3969ZM23.6814 9.9621C22.2079 9.45027 21.3093 8.05085 20.1596 8.55619C17.8469 9.56689 15.7126 10.9534 13.1621 12.3722C14.7413 12.6832 15.5805 13.9207 16.9152 13.2728C19.023 12.2491 21.1309 11.2125 23.6814 9.9621ZM8.70198 10.0593C10.0037 10.4934 10.6578 11.6919 11.9595 10.9793C14.107 9.80013 16.2479 8.60802 18.4284 7.40944C17.0342 5.76382 15.6994 5.92579 14.1599 6.92353C12.5344 7.97958 10.7966 8.86718 8.70198 10.0593Z" fill="#0CBB7D"/>
</svg>
