<svg width="32" height="40" viewBox="0 0 32 40" fill="none" xmlns="http://www.w3.org/2000/svg">
<path d="M0 15.702C0.588076 6.19114 7.72428 -1.00035 17.9066 0.114007C25.2608 0.91738 31.1218 6.46325 31.9345 14.3998C32.3508 18.4361 30.7319 21.9541 28.525 25.2259C25.1089 30.2859 20.8073 34.6655 16.9485 39.3821C16.3274 40.1466 15.6996 40.2373 15.0785 39.4534C10.4334 33.5253 4.74425 28.3746 1.48671 21.4423C0.561645 19.4921 0.389848 17.3801 0 15.702ZM16.0234 28.3098C23.3578 28.3293 29.4236 22.5955 29.4699 15.5984C29.5161 8.3745 23.6155 2.45286 16.2679 2.3492C9.11187 2.24554 2.92716 8.07647 2.89413 14.944C2.86109 22.5242 8.5238 28.2904 16.0234 28.3098Z" fill="#0CBB7D"/>
<path d="M27.8496 15.4814C27.8232 21.8436 22.438 27.0526 16.0286 26.9165C9.5003 26.7805 4.3662 21.6039 4.43227 15.2223C4.49835 8.81472 9.74478 3.77421 16.2929 3.84547C22.8278 3.91674 27.876 8.99613 27.8496 15.4814ZM17.0594 24.189C24.7506 20.8524 24.7638 20.8329 24.6251 13.2462C24.6251 13.175 24.6185 13.1102 24.6251 13.0389C24.7242 11.9893 24.5722 11.4451 23.3036 12.1254C21.5988 13.0389 19.8147 13.8358 18.0373 14.6133C17.2906 14.9372 17.0263 15.3842 17.0396 16.1811C17.0858 18.7727 17.0594 21.3577 17.0594 24.189ZM15.2291 24.4028C15.2291 21.8501 15.2291 19.6667 15.2291 17.4899C15.2291 14.7558 15.0705 14.5679 12.064 14.0043C12.064 15.4231 12.064 16.8096 12.064 18.222C10.128 17.7425 10.1743 16.3755 10.3395 15.0733C10.5972 13.0648 9.79764 11.9829 7.5907 11.8079C7.5907 14.2828 7.61713 16.7448 7.57749 19.2003C7.56427 19.9324 7.86822 20.3146 8.48273 20.645C10.6104 21.7983 12.7116 23.0033 15.2291 24.4028ZM23.6736 9.96795C22.2001 9.45613 21.3015 8.0567 20.1517 8.56205C17.8391 9.57275 15.7048 10.9592 13.1543 12.3781C14.7335 12.6891 15.5727 13.9265 16.9074 13.2786C19.0152 12.255 21.1231 11.2184 23.6736 9.96795ZM8.69417 10.0651C9.99587 10.4992 10.65 11.6978 11.9517 10.9851C14.0992 9.80598 16.24 8.61388 18.4205 7.4153C17.0263 5.76968 15.6916 5.93165 14.152 6.92939C12.5266 7.98544 10.7888 8.87303 8.69417 10.0651Z" fill="#0CBB7D"/>
</svg>
